<svg xmlns="http://www.w3.org/2000/svg" xmlns:xlink="http://www.w3.org/1999/xlink" width="16" height="16" viewBox="0 0 16 16"><defs><style>.a{fill:rgba(0,0,0,0);stroke:rgba(0,0,0,0);}.b{clip-path:url(#a);}.c{fill:none;stroke:#666;stroke-linejoin:round;}</style><clipPath id="a"><rect class="a" width="16" height="16" transform="translate(46 535.728)"/></clipPath></defs><g class="b" transform="translate(-46 -535.728)"><g transform="translate(-64.901 496.55)"><path class="c" d="M117.043,53.426a6.5,6.5,0,0,1-2.827-1.723,1.95,1.95,0,0,0-1.49-3.207,1.894,1.894,0,0,0-.193.01,6.558,6.558,0,0,1,.165-3.26h.028a1.95,1.95,0,0,0,1.749-2.811,6.486,6.486,0,0,1,2.687-1.5,1.951,1.951,0,0,0,3.476,0,6.474,6.474,0,0,1,2.687,1.5,1.951,1.951,0,0,0,1.75,2.811h.027a6.547,6.547,0,0,1,.166,3.26,1.908,1.908,0,0,0-.193-.01,1.951,1.951,0,0,0-1.491,3.207,6.5,6.5,0,0,1-2.827,1.723,1.951,1.951,0,0,0-3.715,0Z" transform="translate(0 0)"/><path class="c" d="M119.4,50.127a2.45,2.45,0,1,0-2.45-2.45A2.449,2.449,0,0,0,119.4,50.127Z" transform="translate(-0.5 -0.483)"/></g></g></svg>